<?xml version="1.0" encoding="utf-8"?>
<!-- Generator: Adobe Illustrator 24.0.1, SVG Export Plug-In . SVG Version: 6.00 Build 0)  -->
<svg version="1.1" id="Layer_1" xmlns="http://www.w3.org/2000/svg" xmlns:xlink="http://www.w3.org/1999/xlink" x="0px" y="0px"
	 viewBox="0 0 600 138.6" style="enable-background:new 0 0 600 138.6;" xml:space="preserve">
<style type="text/css">
	.st0{fill:#FFFFFF;}
	.st1{fill:#00FFCC;}
</style>
<g>
	<path class="st0" d="M22.2,33.1l0.6,8.2c5.2-6.3,12.2-9.5,21-9.5c9.4,0,15.9,3.7,19.4,11.1c5.1-7.4,12.4-11.1,21.9-11.1
		c7.9,0,13.8,2.3,17.7,6.9s5.8,11.5,5.8,20.8V106H89V59.5c0-4.1-0.8-7.2-2.4-9.1c-1.6-1.9-4.5-2.9-8.6-2.9c-5.8,0-9.9,2.8-12.1,8.4
		L66,106H46.4V59.6c0-4.2-0.8-7.3-2.5-9.2s-4.5-2.8-8.5-2.8c-5.5,0-9.5,2.3-12,6.9V106H3.9V33L22.2,33.1L22.2,33.1z"/>
	<path class="st0" d="M157.1,107.4c-10.7,0-19.4-3.3-26.1-9.8c-6.7-6.6-10.1-15.3-10.1-26.2v-1.9c0-7.3,1.4-13.9,4.2-19.7
		s6.8-10.2,12-13.4c5.2-3.1,11.1-4.7,17.8-4.7c10,0,17.8,3.1,23.6,9.4c5.7,6.3,8.6,15.2,8.6,26.8v8h-46.5c0.6,4.8,2.5,8.6,5.7,11.5
		s7.2,4.3,12,4.3c7.5,0,13.4-2.7,17.6-8.2l9.6,10.7c-2.9,4.1-6.9,7.4-11.9,9.7S163.1,107.4,157.1,107.4z M154.8,47.4
		c-3.9,0-7,1.3-9.4,3.9c-2.4,2.6-3.9,6.4-4.6,11.2h27.1V61c-0.1-4.3-1.3-7.7-3.5-10.1C162.2,48.6,159,47.4,154.8,47.4z"/>
	<path class="st0" d="M218.8,33.1v77c0,8-2.1,14.3-6.4,18.8c-4.3,4.5-10.4,6.7-18.5,6.7c-3.4,0-6.6-0.4-9.6-1.1v-15.4
		c2.3,0.4,4.4,0.6,6.1,0.6c5.9,0,8.8-3.1,8.8-9.4V33.1H218.8z M197.7,14.2c0-2.9,1-5.3,2.9-7.2s4.6-2.8,8-2.8s6,0.9,8,2.8
		s2.9,4.3,2.9,7.2c0,3-1,5.4-3,7.3s-4.6,2.8-7.9,2.8c-3.3,0-5.9-0.9-7.9-2.8S197.7,17.1,197.7,14.2z"/>
</g>
<g>
	<g>
		<path class="st1" d="M233.6,97.5c0-3.1,1-5.6,3.1-7.6c2.1-1.9,4.7-2.9,7.9-2.9c3.2,0,5.8,1,7.9,2.9s3.1,4.5,3.1,7.6
			s-1,5.5-3.1,7.5c-2.1,1.9-4.7,2.9-8,2.9c-3.2,0-5.8-1-7.9-2.9C234.7,103,233.6,100.5,233.6,97.5z"/>
	</g>
</g>
</svg>
